<svg xmlns="http://www.w3.org/2000/svg" x="0px" y="0px"
width="50" height="50"
viewBox="0 0 172 172"
style=" fill:#000000;"><g transform="translate(8.6,8.6) scale(0.9,0.9)"><g fill="none" fill-rule="nonzero" stroke="none" stroke-width="1" stroke-linecap="butt" stroke-linejoin="miter" stroke-miterlimit="10" stroke-dasharray="" stroke-dashoffset="0" font-family="none" font-weight="none" font-size="none" text-anchor="none" style="mix-blend-mode: normal"><path d="M0,172v-172h172v172z" fill="none" stroke="none"></path><g fill="#000000" stroke="none"><path d="M73.48297,6.88c-18.75244,0 -30.80366,8.66057 -34.56797,17.95922c-14.76955,3.14053 -25.155,19.29851 -25.155,37.07406c0,7.31704 2.12277,14.64259 5.79828,22.77656c-3.00226,3.67297 -5.79828,8.27897 -5.79828,15.07015c0,8.9008 5.82811,17.47629 16.21234,22.2525c-3.2613,7.58818 -2.56212,14.90777 1.32359,20.11594c4.03598,5.40958 10.81801,8.22447 18.10031,8.78141c2.20761,5.79842 6.18381,9.82673 10.58875,11.74437c5.01679,2.184 10.14966,2.46578 13.49797,2.46578c5.1191,0 9.6073,-2.41275 12.52375,-6.15437c2.91463,3.71979 7.38946,6.11753 12.48344,6.15437h0.00672c3.16536,0.0227 8.27758,-0.26588 13.33672,-2.44563c4.36584,-1.88104 8.33519,-5.84122 10.6089,-11.48906c5.49934,-0.17757 11.18873,-0.9921 16.01078,-3.70875c5.41776,-3.05235 9.46672,-8.83023 9.46672,-16.75656c0,-3.09921 -1.11721,-5.95975 -2.4389,-8.83515c4.41744,-2.19605 7.89811,-5.00728 9.80265,-8.47906c2.40075,-4.37631 2.95625,-9.17369 2.95625,-13.64578c0,-6.85694 -3.2384,-10.98157 -6.38281,-14.35125c3.73045,-8.13288 6.50438,-15.99393 6.38281,-23.54922c-0.31982,-20.07027 -13.84551,-34.15941 -28.51437,-37.07406c-3.26882,-8.59272 -12.56399,-17.90547 -31.2086,-17.90547c-4.69245,0 -9.2517,1.20548 -12.12735,4.91141c-0.14181,0.18276 -0.25711,0.38767 -0.38969,0.57781c-0.13258,-0.19015 -0.24788,-0.39506 -0.38969,-0.57781c-2.87564,-3.70592 -7.4349,-4.91141 -12.12735,-4.91141zM73.48297,13.76c3.71147,0 5.40942,0.59133 6.69188,2.24406c1.28246,1.65274 2.38515,5.36288 2.38515,12.15422v19.42391c-0.0614,0.37149 -0.0614,0.75054 0,1.12203v13.21578h-10.32v-17.2h-14.405c-1.43571,-3.98122 -5.22653,-6.88 -9.675,-6.88c-5.65883,0 -10.32,4.66117 -10.32,10.32c0,5.65883 4.66117,10.32 10.32,10.32c4.44847,0 8.23929,-2.89878 9.675,-6.88h7.525v17.2h17.2v27.52h-24.08v21.285c-3.98122,1.43571 -6.88,5.22653 -6.88,9.675c0,5.65883 4.66117,10.32 10.32,10.32c5.65883,0 10.32,-4.66117 10.32,-10.32c0,-4.44847 -2.89878,-8.23929 -6.88,-9.675v-14.405h17.2v23.50219c-0.0614,0.37149 -0.0614,0.75054 0,1.12203v21.23797c0,5.6295 -3.64533,9.17781 -9.07703,9.17781c-2.89873,0 -7.16163,-0.33254 -10.75,-1.89469c-3.58837,-1.56216 -6.4987,-4.00823 -7.79375,-9.25172l-0.645,-2.6136h-2.69422c-6.30858,0 -11.9243,-2.62515 -14.78797,-6.46344c-2.86368,-3.83829 -3.62171,-8.85499 0.54422,-15.85625l2.17688,-3.66172l-4.03797,-1.35719c-10.49797,-3.52839 -14.85515,-10.58403 -14.85515,-17.3814c0,-5.91565 2.19572,-8.89941 5.30109,-12.29531l1.33703,-1.46469h11.20688c1.43571,3.98122 5.22653,6.88 9.675,6.88c5.65883,0 10.32,-4.66117 10.32,-10.32c0,-5.65883 -4.66117,-10.32 -10.32,-10.32c-4.44847,0 -8.23929,2.89878 -9.675,6.88h-13.94812c-2.60746,-6.35201 -3.89687,-11.82922 -3.89687,-17.20672c0,-15.78909 9.89157,-29.60867 21.05656,-30.98016l2.27094,-0.27547l0.61813,-2.19703c1.54007,-5.41572 11.27715,-14.70062 28.89734,-14.70062zM98.51703,13.76c17.62019,0 23.65382,8.36844 25.45734,14.70063l0.62485,2.19703l2.26422,0.27547c11.59886,1.42478 24.21229,13.20111 24.49656,31.04063c0.10186,6.33027 -2.48776,14.04904 -6.54406,22.5414l-1.0414,2.1836l1.69312,1.71328c3.58602,3.63794 5.89235,5.57335 5.89235,11.34797c0,3.87679 -0.52864,7.45135 -2.10969,10.33344c-1.00731,1.83622 -2.52925,3.45674 -4.77031,4.85766v-15.1911h-30.96v-10.965c3.98122,-1.43571 6.88,-5.22653 6.88,-9.675c0,-5.65883 -4.66117,-10.32 -10.32,-10.32c-5.65883,0 -10.32,4.66117 -10.32,10.32c0,4.44847 2.89878,8.23929 6.88,9.675v17.845h30.96v13.26953c-0.11881,0.78547 0.03787,1.58786 0.44344,2.27094c0.00224,0.00224 0.00448,0.00448 0.00672,0.00672c1.78275,3.63915 2.98985,6.72527 2.98985,8.53281c0,5.83367 -2.22517,8.65579 -5.96625,10.76344c-3.74108,2.10765 -9.25404,2.99656 -14.67375,2.99656h-2.69422l-0.645,2.6136c-1.28587,5.20634 -4.28874,7.68843 -7.94828,9.26515c-3.65954,1.57673 -7.941,1.89997 -10.5686,1.88125c-5.46093,-0.03949 -9.1039,-3.54832 -9.1039,-9.17781v-18.34219h14.405c1.43571,3.98122 5.22653,6.88 9.675,6.88c5.65883,0 10.32,-4.66117 10.32,-10.32c0,-5.65883 -4.66117,-10.32 -10.32,-10.32c-4.44847,0 -8.23929,2.89878 -9.675,6.88h-14.405v-23.50219c0.0614,-0.37149 0.0614,-0.75054 0,-1.12203v-33.27797c0.0614,-0.37149 0.0614,-0.75054 0,-1.12203v-13.21578h28.165c1.43571,3.98122 5.22653,6.88 9.675,6.88c5.65883,0 10.32,-4.66117 10.32,-10.32c0,-5.65883 -4.66117,-10.32 -10.32,-10.32c-4.44847,0 -8.23929,2.89878 -9.675,6.88h-28.165v-16.56172c0,-6.79134 1.1027,-10.50148 2.38515,-12.15422c1.28246,-1.65274 2.98041,-2.24406 6.69188,-2.24406zM48.16,44.72c1.87078,0 3.29699,1.40631 3.39969,3.24515c-0.00762,0.13203 -0.00762,0.26438 0,0.39641c-0.10593,1.83546 -1.53123,3.23844 -3.39969,3.23844c-1.9406,0 -3.44,-1.4994 -3.44,-3.44c0,-1.9406 1.4994,-3.44 3.44,-3.44zM127.28,44.72c1.9406,0 3.44,1.4994 3.44,3.44c0,1.9406 -1.4994,3.44 -3.44,3.44c-1.87078,0 -3.29699,-1.40631 -3.39969,-3.24515c0.00762,-0.13203 0.00762,-0.26438 0,-0.39641c0.10593,-1.83546 1.53123,-3.23844 3.39969,-3.23844zM110.08,75.68c1.9406,0 3.44,1.4994 3.44,3.44c0,1.87078 -1.40631,3.29699 -3.24515,3.39969c-0.08276,-0.00523 -0.16568,-0.00748 -0.2486,-0.00672c-0.04931,0.00118 -0.0986,0.00342 -0.14781,0.00672c-1.83546,-0.10593 -3.23844,-1.53123 -3.23844,-3.39969c0,-1.9406 1.4994,-3.44 3.44,-3.44zM48.16,79.12c1.9406,0 3.44,1.4994 3.44,3.44c0,1.9406 -1.4994,3.44 -3.44,3.44c-1.87078,0 -3.29699,-1.40631 -3.39969,-3.24515c0.00762,-0.13203 0.00762,-0.26438 0,-0.39641c0.10593,-1.83546 1.53123,-3.23844 3.39969,-3.23844zM113.52,123.84c1.9406,0 3.44,1.4994 3.44,3.44c0,1.9406 -1.4994,3.44 -3.44,3.44c-1.87078,0 -3.29699,-1.40631 -3.39969,-3.24515c0.00762,-0.13203 0.00762,-0.26438 0,-0.39641c0.10593,-1.83546 1.53123,-3.23844 3.39969,-3.23844zM61.72515,123.88031c0.13203,0.00762 0.26438,0.00762 0.39641,0c1.83546,0.10593 3.23844,1.53123 3.23844,3.39969c0,1.9406 -1.4994,3.44 -3.44,3.44c-1.9406,0 -3.44,-1.4994 -3.44,-3.44c0,-1.87078 1.40631,-3.29699 3.24515,-3.39969z"></path></g></g></g></svg>