<svg xmlns="http://www.w3.org/2000/svg" x="0px" y="0px"
width="80" height="80"
viewBox="0 0 172 172"
style=" fill:#000000;"><g transform=""><g fill="none" fill-rule="nonzero" stroke="none" stroke-width="1" stroke-linecap="butt" stroke-linejoin="miter" stroke-miterlimit="10" stroke-dasharray="" stroke-dashoffset="0" font-family="none" font-weight="none" font-size="none" text-anchor="none" style="mix-blend-mode: normal"><path d="M0,172v-172h172v172z" fill="none"></path><g fill="#000000"><path d="M86,19.35c-13.25753,0 -21.94512,3.16201 -21.94512,3.16201c-0.47278,0.14975 -0.87926,0.45832 -1.15059,0.87344l-7.99951,8.11709c-6.63823,0.17827 -13.4831,2.53383 -19.19463,6.39541c-5.94142,4.017 -10.70351,9.68643 -12.3835,16.40635c-0.18085,0.73131 0.03421,1.50393 0.56689,2.03662c-2.14614,3.80364 -6.69355,12.9501 -6.69355,22.39024c-0.00004,1.02398 0.72203,1.90593 1.72588,2.10801c11.68464,2.35205 16.72549,11.39248 16.72549,11.39248c0.00692,0.00986 0.01392,0.01965 0.021,0.02939c-0.78034,10.19587 0.46084,18.14927 2.33897,23.96494c1.97146,6.10471 4.6038,9.86875 6.03428,11.64023l-5.41279,10.82139c-0.40172,0.80251 -0.26277,1.77011 0.34853,2.42715c10.83474,11.68872 30.13936,15.83525 47.01865,15.83525c16.87929,0 36.18386,-4.14878 47.01865,-15.83525c0.60943,-0.65625 0.74829,-1.62153 0.34853,-2.42295l-5.41279,-10.82559c1.43048,-1.77148 4.06281,-5.53552 6.03428,-11.64023c1.87812,-5.81567 3.1193,-13.76907 2.33897,-23.96494c0.00708,-0.00974 0.01408,-0.01954 0.021,-0.02939c0,0 5.04085,-9.04043 16.72549,-11.39248c1.00384,-0.20208 1.72592,-1.08402 1.72588,-2.10801c0,-9.43277 -4.54105,-18.57685 -6.68936,-22.38604c0.53415,-0.53357 0.74933,-1.3082 0.56689,-2.04082c-1.67998,-6.71992 -6.44208,-12.38934 -12.3835,-16.40635c-5.71153,-3.86158 -12.55639,-6.21714 -19.19463,-6.39541l-8.02051,-8.13389c-0.25317,-0.38027 -0.62088,-0.67002 -1.0498,-0.82725c-0.00698,-0.00284 -0.01398,-0.00564 -0.021,-0.0084c-0.02089,-0.00732 -0.04189,-0.01432 -0.06299,-0.021c-0.06067,-0.02236 -0.12232,-0.04198 -0.18476,-0.05879c-0.49204,-0.17503 -8.83078,-3.0748 -21.60918,-3.09902c-0.05033,-0.00317 -0.10075,-0.00457 -0.15117,-0.0042zM86,23.65c8.53165,0 14.64382,1.30063 17.86348,2.1584c-0.65733,0.97685 -1.48221,2.13566 -2.54473,3.41397c-2.53854,3.05411 -6.12876,6.34901 -9.93535,7.60898c-0.62061,0.2063 -1.1136,0.68383 -1.33955,1.29756l-4.04385,10.94736l-4.04385,-10.94736c-0.22595,-0.61373 -0.71894,-1.09126 -1.33955,-1.29756c-3.8077,-1.26003 -7.39294,-4.55496 -9.93115,-7.60898c-1.06327,-1.27934 -1.89053,-2.43754 -2.54893,-3.41397c3.21966,-0.85777 9.33183,-2.1584 17.86348,-2.1584zM107.4832,27.87022l6.54658,6.64736c-0.05119,0.9207 -0.33693,3.91079 -3.36357,8.80156c-3.46744,5.60305 -10.50667,12.77791 -24.67041,18.7957c-14.1752,-5.97298 -21.20846,-13.14619 -24.67041,-18.75791c-3.02714,-4.9069 -3.30238,-7.92045 -3.35098,-8.83936l6.54658,-6.64316c0.72234,1.17354 1.05875,1.9366 2.85547,4.09844c2.58523,3.11059 6.27765,6.474 10.80039,8.33125l5.80752,15.71768c0.31297,0.84247 1.1169,1.40143 2.01563,1.40143c0.89873,0 1.70265,-0.55895 2.01563,-1.40143l5.81172,-15.72187c4.52038,-1.85764 8.21137,-5.22147 10.79619,-8.33125c1.79851,-2.16378 2.13761,-2.92542 2.85967,-4.09844zM53.84658,35.84873c0.36163,2.11586 1.25268,5.60374 3.82129,9.76738c2.27994,3.69573 5.88873,7.84991 11.32529,11.90898l-0.20156,1.13379l1.31436,1.40674l0.74746,0.13437l1.14219,-0.57529c3.6561,2.39631 7.96629,4.72984 13.19395,6.86572c0.5233,0.21488 1.1102,0.21488 1.63349,0c5.20764,-2.14656 9.50488,-4.48171 13.15195,-6.87832l0.42412,0.45352l0.74746,0.13437l1.72168,-0.86504l0.34014,-1.89385l-0.05879,-0.06299c5.3482,-4.03056 8.91287,-8.14165 11.17412,-11.79561c2.56972,-4.15242 3.46892,-7.62556 3.83389,-9.73379c5.34427,0.39277 11.01515,2.42509 15.72607,5.61016c4.75849,3.21723 8.22229,7.6315 9.88916,12.42549c-0.06647,0.05495 -0.12957,0.11384 -0.18897,0.17637c-6.14138,3.10636 -10.35494,10.06742 -10.98096,19.64814c-1.38657,-0.05721 -2.60821,-0.06347 -4.3168,-0.40313c-0.75394,-0.15018 -1.53072,0.11331 -2.03767,0.69121c-0.50696,0.5779 -0.66705,1.38238 -0.41997,2.11034c0.24709,0.72796 0.86381,1.26877 1.6178,1.41867c0.84495,0.16798 1.50588,0.24771 2.20459,0.34434c4.18524,17.29128 2.72996,29.33366 0.24356,37.03291c-2.32311,7.19358 -5.24104,10.35604 -5.76553,10.88857c-0.36223,0.26203 -0.63377,0.63045 -0.77686,1.05401c-0.28098,0.73225 -0.14098,1.55941 0.36533,2.1584l5.02226,10.04873c-9.65136,9.44119 -27.12627,13.59707 -42.73965,13.59707c-15.6135,0 -33.0883,-4.15806 -42.73965,-13.60127l5.01807,-10.03613c0.40508,-0.47416 0.58435,-1.10083 0.49131,-1.71748c-0.06482,-0.65798 -0.42875,-1.24955 -0.98682,-1.6041c-0.70454,-0.74104 -3.45467,-3.90519 -5.67734,-10.78779c-2.48494,-7.69472 -3.94094,-19.72861 0.23516,-37.00351c0.55014,-0.07097 1.04558,-0.10557 1.70908,-0.22676c0.77406,-0.11837 1.42257,-0.64819 1.69294,-1.38309c0.27037,-0.7349 0.11985,-1.55868 -0.39294,-2.15049c-0.51279,-0.5918 -1.30676,-0.85805 -2.07266,-0.69504c-1.52837,0.27915 -2.65335,0.25658 -3.87168,0.29395c-0.61899,-9.59838 -4.8392,-16.57308 -10.98936,-19.68174c-0.05952,-0.06109 -0.12262,-0.11858 -0.18897,-0.17217c1.66698,-4.79402 5.13061,-9.20822 9.88916,-12.42549c4.71196,-3.18577 10.38426,-5.21803 15.73027,-5.61016zM27.78203,58.29775c4.39627,2.85312 7.59639,8.82324 7.59639,17.7333c0.00012,1.18736 0.96264,2.14988 2.15,2.15c0.12488,0 0.18729,-0.00811 0.30654,-0.0084c-0.65598,2.85713 -1.11763,5.53709 -1.49492,8.13389c-2.82484,-3.01432 -7.61442,-7.01006 -14.64268,-8.96953c0.45493,-7.8403 4.36182,-15.84248 6.08467,-19.03926zM144.21797,58.29775c1.72285,3.19677 5.62974,11.19896 6.08467,19.03926c-7.02825,1.95948 -11.81783,5.95521 -14.64268,8.96953c-0.37746,-2.59799 -0.8385,-5.27953 -1.49492,-8.13809c0.12169,0.00053 0.1837,0.0126 0.31074,0.0126c1.18736,-0.00012 2.14988,-0.96264 2.15,-2.15c0,-8.91006 3.19693,-14.88018 7.59219,-17.7333zM65.64219,62.70693l-1.72168,0.86084l-0.34014,1.89805l1.31436,1.40674l0.74746,0.13437l1.72168,-0.86504l0.34014,-1.89385l-1.31855,-1.40674zM106.35781,62.70693l-1.72168,0.86084l-0.34014,1.89805l1.31855,1.40674l0.74326,0.13437l1.72588,-0.86504l0.33594,-1.89805l-1.31436,-1.40674zM113.07656,68.03994l-1.72168,0.86504l-0.34014,1.89385l1.31436,1.40674l0.74746,0.13438l1.72168,-0.86084l0.34014,-1.89805l-1.31436,-1.40674zM58.93184,68.04834l-1.72588,0.86504l-0.33594,1.89385l1.31436,1.40674l0.74746,0.13438l1.72168,-0.86084l0.34014,-1.89805l-1.31856,-1.40674zM120.84512,71.67227l-1.72168,0.86504l-0.34014,1.89385l1.31855,1.40674l0.74326,0.13437l1.72168,-0.86084l0.34014,-1.89805l-1.31436,-1.40674zM51.16328,71.68906l-1.72588,0.86084l-0.33594,1.89805l1.31436,1.40674l0.74746,0.13438l1.72168,-0.86504l0.34014,-1.89385l-1.31855,-1.40674zM119.8499,128.27773l-1.72168,0.86084l-0.34014,1.89805l1.31856,1.40674l0.74326,0.13438l1.72168,-0.86504l0.34014,-1.89385l-1.31436,-1.40674zM53.67022,130.24717l-1.72168,0.86504l-0.34014,1.89385l1.31856,1.40674l0.74326,0.13438l1.72588,-0.86504l0.33594,-1.89385l-1.31436,-1.40674zM111.97217,131.71689l-1.72168,0.86504l-0.34014,1.89385l1.31436,1.41094l0.74746,0.13018l1.72168,-0.86084l0.34014,-1.89805l-1.31855,-1.40674zM61.56475,133.63594l-1.72168,0.86504l-0.34014,1.89385l1.31436,1.40674l0.74746,0.13438l1.72168,-0.86084l0.34014,-1.89805l-1.31855,-1.40674zM103.84248,134.51777l-1.72168,0.86504l-0.34014,1.89385l1.31436,1.40674l0.74746,0.13438l1.72168,-0.86084l0.34014,-1.89805l-1.31436,-1.40674zM69.8582,135.89512l-1.72588,0.86084l-0.33594,1.89805l1.31436,1.40674l0.74746,0.13438l1.72168,-0.86504l0.34014,-1.89385l-1.31855,-1.40674zM95.48603,136.5334l-1.72168,0.86084l-0.34014,1.89805l1.31855,1.40674l0.74326,0.13438l1.72168,-0.86504l0.34014,-1.89385l-1.31436,-1.41094zM78.36162,137.12129l-1.72168,0.86504l-0.34014,1.89805l1.31436,1.40674l0.74746,0.13018l1.72168,-0.86084l0.34014,-1.89805l-1.31436,-1.40674zM86.94482,137.46143l-1.72168,0.86504l-0.34014,1.89385l1.31855,1.40674l0.74326,0.13437l1.72588,-0.86084l0.33594,-1.89805l-1.31436,-1.40674z"></path></g></g></g></svg>