<svg xmlns="http://www.w3.org/2000/svg" x="0px" y="0px"
width="50" height="50"
viewBox="0 0 172 172"
style=" fill:#000000;"><g transform=""><g fill="none" fill-rule="nonzero" stroke="none" stroke-width="1" stroke-linecap="butt" stroke-linejoin="miter" stroke-miterlimit="10" stroke-dasharray="" stroke-dashoffset="0" font-family="none" font-weight="none" font-size="none" text-anchor="none" style="mix-blend-mode: normal"><path d="M0,172v-172h172v172z" fill="none"></path><path d="" fill="none"></path><g fill="#000000"><path d="M134.375,11.79981l-16.125,24.1875v71.51269h-5.375v10.75h16.125v17.63672c-3.19141,1.88965 -5.375,5.31201 -5.375,9.23828c0,5.87891 4.87109,10.75 10.75,10.75c5.87891,0 10.75,-4.87109 10.75,-10.75c0,-3.92627 -2.18359,-7.34863 -5.375,-9.23828v-17.63672h16.125v-10.75h-5.375v-71.51269zM61.83349,15.87305l-1.6167,0.50391c0,0 -15.32715,4.72412 -39.93457,10.45606l-4.15723,0.96582v74.32617c0,14.65528 11.42188,27.21094 21.91992,36.78516c10.47705,9.59521 20.91211,16.125 20.91211,16.125l2.85547,1.82666l2.85547,-1.82666c0,0 10.43506,-6.52979 20.91211,-16.125c10.49805,-9.57422 21.91992,-22.12988 21.91992,-36.78516v-74.1582l-4.15722,-0.96582c-24.58643,-5.71094 -39.89258,-10.62403 -39.89258,-10.62403zM61.79151,27.04297c1.0708,0.35693 15.22217,4.51416 34.95849,9.32227v38.86377l-65.63379,-40.12354c17.06982,-4.22021 29.70947,-7.74756 30.67529,-8.0625zM134.375,31.2002l5.375,8.0625v68.2373h-10.75v-68.2373zM26.875,45.1206l69.875,42.70606v10.35107l-69.875,-42.68506zM26.875,68.09033l68.02734,41.55127c-1.0918,2.49853 -2.58252,5.08105 -4.40918,7.68457l-63.61817,-38.88477zM26.875,91.03906l56.68945,34.66455c-1.70068,1.80566 -3.40136,3.63232 -5.20703,5.29102c-8.25146,7.5166 -14.27734,11.2749 -16.54492,12.76563c-2.26758,-1.49072 -8.29346,-5.24903 -16.54492,-12.76562c-9.6582,-8.83935 -18.39258,-20.49219 -18.39258,-28.86963z"></path></g></g></g></svg>