<svg xmlns="http://www.w3.org/2000/svg" x="0px" y="0px"
width="50" height="50"
viewBox="0 0 172 172"
style=" fill:#000000;"><g transform="translate(8.6,8.6) scale(0.9,0.9)"><g fill="none" fill-rule="nonzero" stroke="none" stroke-width="1" stroke-linecap="butt" stroke-linejoin="miter" stroke-miterlimit="10" stroke-dasharray="" stroke-dashoffset="0" font-family="none" font-weight="none" font-size="none" text-anchor="none" style="mix-blend-mode: normal"><path d="M0,172v-172h172v172z" fill="none" stroke="none"></path><g fill="#000000" stroke="none"><path d="M47.92424,8.0625c-4.51346,-0.00002 -8.84206,1.79294 -12.03356,4.98443c-3.1915,3.1915 -4.98445,7.5201 -4.98443,12.03356v121.83902c-0.00002,4.51346 1.79294,8.84206 4.98443,12.03356c3.1915,3.1915 7.5201,4.98445 12.03356,4.98443h75.81558c4.51346,0.00002 8.84206,-1.79294 12.03356,-4.98443c3.1915,-3.1915 4.98445,-7.5201 4.98443,-12.03356v-121.83902c0.00002,-4.51346 -1.79294,-8.84206 -4.98443,-12.03356c-3.1915,-3.1915 -7.5201,-4.98445 -12.03356,-4.98443zM47.92424,13.4375h75.81558c3.08792,-0.00002 6.04937,1.22665 8.23286,3.41013c2.18349,2.18349 3.41015,5.14494 3.41013,8.23286v121.83902c0.00002,3.08792 -1.22664,6.04937 -3.41013,8.23286c-2.18349,2.18349 -5.14494,3.41015 -8.23286,3.41013h-75.81558c-3.08792,0.00002 -6.04937,-1.22664 -8.23286,-3.41013c-2.18349,-2.18349 -3.41015,-5.14494 -3.41013,-8.23286v-121.83902c-0.00002,-3.08792 1.22664,-6.04937 3.41013,-8.23286c2.18349,-2.18349 5.14494,-3.41015 8.23286,-3.41013zM111.53125,22.84375c-1.48427,0 -2.6875,1.20323 -2.6875,2.6875c0,1.48427 1.20323,2.6875 2.6875,2.6875c5.9343,0.00666 10.74334,4.8157 10.75,10.75c0,1.48427 1.20323,2.6875 2.6875,2.6875c1.48427,0 2.6875,-1.20323 2.6875,-2.6875c-0.01,-8.90145 -7.22355,-16.115 -16.125,-16.125zM85.93701,52.84389c-0.52211,0.00776 -1.03825,0.11232 -1.52222,0.30838c-0.05666,0.02083 -0.11265,0.04362 -0.16797,0.06758c-21.85576,9.71968 -29.25568,27.54646 -26.89337,40.90367c0.00134,0.00269 0.00293,0.00839 0.00394,0.01444c1.77039,9.63133 8.23527,15.85467 16.47078,15.85467c1.70055,-0.01181 3.39024,-0.27221 5.01544,-0.77292l-1.85422,6.51929c-0.23046,0.82622 -0.0681,1.71252 0.44026,2.4034c0.50272,0.68464 1.29504,1.0968 2.14423,1.11542h12.85224c0.8485,-0.02243 1.6394,-0.43435 2.14418,-1.11675c0.50478,-0.68239 0.66719,-1.55922 0.44031,-2.37713l-1.81419,-6.38609c1.6342,0.50306 3.33379,0.76175 5.04365,0.76767c8.28623,0 14.72642,-6.2942 16.40779,-16.02396c2.35962,-13.49965 -5.04688,-31.38576 -26.91305,-40.90892c-0.04905,-0.0215 -0.09855,-0.04222 -0.14894,-0.06036c-0.52345,-0.21207 -1.08414,-0.31693 -1.64885,-0.30838zM86.00591,58.31862c18.86726,8.39541 25.32969,23.52718 23.34766,34.87583c-1.23289,7.13531 -5.49093,11.56819 -11.11284,11.56819c-3.25859,0 -6.90326,-1.57322 -10.53676,-4.54828c-0.97971,-0.80232 -2.38657,-0.81188 -3.37709,-0.02296c-3.63451,2.89511 -7.2643,4.42558 -10.4987,4.42558c-5.59806,0 -9.88263,-4.38417 -11.18304,-11.44222c-2.73789,-15.51225 9.69282,-28.62383 23.36078,-34.85614zM85.97704,105.6904c0.24154,0.17435 0.4838,0.37966 0.72568,0.54393l2.16457,7.64848h-5.73456l2.18359,-7.72197c0.22037,-0.1458 0.44068,-0.31759 0.66072,-0.47044zM46.95251,130.34506c-1.45292,0.04259 -2.60868,1.23264 -2.60876,2.68619c0.01,8.90145 7.22355,16.115 16.125,16.125c1.48427,0 2.6875,-1.20323 2.6875,-2.6875c0,-1.48427 -1.20323,-2.6875 -2.6875,-2.6875c-5.9343,-0.00666 -10.74334,-4.8157 -10.75,-10.75c-0.00004,-0.7264 -0.29413,-1.42184 -0.81525,-1.92788c-0.52112,-0.50604 -1.2249,-0.77959 -1.95098,-0.7583z"></path></g></g></g></svg>