<svg xmlns="http://www.w3.org/2000/svg" x="0px" y="0px"
width="24" height="24"
viewBox="0 0 172 172"
style=" fill:#000000;"><g transform="translate(17.2,17.2) scale(0.8,0.8)"><g fill="none" fill-rule="nonzero" stroke="none" stroke-width="1" stroke-linecap="butt" stroke-linejoin="miter" stroke-miterlimit="10" stroke-dasharray="" stroke-dashoffset="0" font-family="none" font-weight="none" font-size="none" text-anchor="none" style="mix-blend-mode: normal"><path d="M0,172v-172h172v172z" fill="none" stroke="none"></path><g fill="#000000" stroke="none"><path d="M170.9498,158.71647c-3.88778,-3.88778 -6.11686,-9.26978 -6.11686,-14.76725v-14.94922c0,-6.32945 -2.79992,-11.96996 -7.16667,-15.90804v-84.42529c0,-7.90503 -6.4283,-14.33333 -14.33333,-14.33333h-21.5v-10.75c0,-1.98063 -1.6027,-3.58333 -3.58333,-3.58333c-1.98063,0 -3.58333,1.6027 -3.58333,3.58333v10.75h-64.5v-10.75c0,-1.98063 -1.6027,-3.58333 -3.58333,-3.58333c-1.98063,0 -3.58333,1.6027 -3.58333,3.58333v10.75h-28.66667c-7.90503,0 -14.33333,6.4283 -14.33333,14.33333v114.66667c0,7.90503 6.4283,14.33333 14.33333,14.33333h102.24179c-0.29832,0.34119 -0.53715,0.7283 -0.85865,1.0498c-1.02531,1.02531 -1.33325,2.56502 -0.77686,3.90527c0.5529,1.34025 1.86165,2.21159 3.31038,2.21159h17.91667c0,3.95076 3.2159,7.16667 7.16667,7.16667c3.95076,0 7.16667,-3.2159 7.16667,-7.16667h17.91667c1.44873,0 2.75749,-0.87134 3.31038,-2.21159c0.5564,-1.34025 0.24845,-2.87996 -0.77686,-3.90527zM14.33294,21.5h28.66667v7.16667c-3.95426,0 -7.16667,3.2159 -7.16667,7.16667c0,3.95076 3.2124,7.16667 7.16667,7.16667c3.95426,0 7.16667,-3.2159 7.16667,-7.16667v-14.33333h64.5v7.16667c-3.95426,0 -7.16667,3.2159 -7.16667,7.16667c0,3.95076 3.2124,7.16667 7.16667,7.16667c3.95426,0 7.16667,-3.2159 7.16667,-7.16667v-14.33333h21.5c3.95076,0 7.16667,3.2159 7.16667,7.16667v21.5h-143.33333v-21.5c0,-3.95076 3.2159,-7.16667 7.16667,-7.16667zM14.33294,150.5c-3.95076,0 -7.16667,-3.2159 -7.16667,-7.16667v-86h143.33333v51.48723c-2.25271,-0.8031 -4.64145,-1.32057 -7.16667,-1.32057c-11.85579,0 -21.5,9.64421 -21.5,21.5v14.94922c0,2.24352 -0.45885,4.43936 -1.16266,6.55078zM125.40227,157.66667c2.32707,-4.16423 3.59733,-8.90934 3.59733,-13.71745v-14.94922c0,-7.90503 6.4283,-14.33333 14.33333,-14.33333c7.90503,0 14.33333,6.4283 14.33333,14.33333v14.94922c0,4.80811 1.27026,9.55322 3.59733,13.71745z"></path></g><path d="" fill="none" stroke="none"></path></g></g></svg>