<svg xmlns="http://www.w3.org/2000/svg" x="0px" y="0px"
width="50" height="50"
viewBox="0 0 172 172"
style=" fill:#000000;"><g transform="translate(17.2,17.2) scale(0.8,0.8)"><g fill="none" fill-rule="nonzero" stroke="none" stroke-width="1" stroke-linecap="butt" stroke-linejoin="miter" stroke-miterlimit="10" stroke-dasharray="" stroke-dashoffset="0" font-family="none" font-weight="none" font-size="none" text-anchor="none" style="mix-blend-mode: normal"><path d="M0,172v-172h172v172z" fill="none" stroke="none"></path><g fill="#000000" stroke="none"><path d="M85.6775,3.3325c-0.14781,0.02688 -0.29562,0.06719 -0.43,0.1075h-74.9275c-3.7625,0 -6.88,3.1175 -6.88,6.88v74.605c-0.20156,0.67188 -0.20156,1.37063 0,2.0425v74.7125c0,3.7625 3.1175,6.88 6.88,6.88h151.36c3.7625,0 6.88,-3.1175 6.88,-6.88v-75.035c0.09406,-0.45687 0.09406,-0.94062 0,-1.3975v-74.9275c0,-3.7625 -3.1175,-6.88 -6.88,-6.88h-75.035c-0.30906,-0.08062 -0.645,-0.12094 -0.9675,-0.1075zM10.32,10.32h72.24v72.24h-72.24zM89.44,10.32h72.24v72.24h-72.24zM47.8375,23.9725c-0.14781,0.02688 -0.29562,0.06719 -0.43,0.1075c-1.59906,0.36281 -2.72781,1.80063 -2.6875,3.44v13.76h-13.76c-0.1075,0 -0.215,0 -0.3225,0c-1.89469,0.09406 -3.37281,1.70656 -3.27875,3.60125c0.09406,1.89469 1.70656,3.37281 3.60125,3.27875h13.76v13.76c-0.01344,1.23625 0.63156,2.39188 1.70656,3.02344c1.075,0.61813 2.39187,0.61813 3.46687,0c1.075,-0.63156 1.72,-1.78719 1.70656,-3.02344v-13.76h13.76c1.23625,0.01344 2.39188,-0.63156 3.02344,-1.70656c0.61813,-1.075 0.61813,-2.39187 0,-3.46687c-0.63156,-1.075 -1.78719,-1.72 -3.02344,-1.70656h-13.76v-13.76c0.04031,-0.99437 -0.36281,-1.94844 -1.075,-2.62031c-0.72562,-0.68531 -1.70656,-1.02125 -2.6875,-0.92719zM109.1125,41.28c-1.89469,0.26875 -3.225,2.02906 -2.95625,3.92375c0.26875,1.89469 2.02906,3.225 3.92375,2.95625h34.4c1.23625,0.01344 2.39188,-0.63156 3.02344,-1.70656c0.61813,-1.075 0.61813,-2.39187 0,-3.46687c-0.63156,-1.075 -1.78719,-1.72 -3.02344,-1.70656h-34.4c-0.1075,0 -0.215,0 -0.3225,0c-0.1075,0 -0.215,0 -0.3225,0c-0.1075,0 -0.215,0 -0.3225,0zM10.32,89.44h72.24v72.24h-72.24zM89.44,89.44h72.24v72.24h-72.24zM35.5825,111.585c-0.1075,0.02688 -0.215,0.06719 -0.3225,0.1075c-1.23625,0.25531 -2.23062,1.1825 -2.59344,2.39188c-0.36281,1.20937 -0.02688,2.52625 0.87344,3.41312l9.7825,9.7825l-9.7825,9.7825c-1.02125,0.83313 -1.49156,2.16344 -1.19594,3.45344c0.29562,1.27656 1.30344,2.28438 2.58,2.58c1.29,0.29563 2.62031,-0.17469 3.45344,-1.19594l9.7825,-9.7825l9.7825,9.7825c0.83313,1.02125 2.16344,1.49156 3.45344,1.19594c1.27656,-0.29562 2.28438,-1.30344 2.58,-2.58c0.29563,-1.29 -0.17469,-2.62031 -1.19594,-3.45344l-9.7825,-9.7825l9.7825,-9.7825c1.075,-1.02125 1.38406,-2.62031 0.7525,-3.96406c-0.645,-1.35719 -2.06937,-2.13656 -3.5475,-1.94844c-0.14781,0.02688 -0.29562,0.06719 -0.43,0.1075c-0.61812,0.16125 -1.16906,0.49719 -1.6125,0.9675l-9.7825,9.7825l-9.7825,-9.7825c-0.645,-0.68531 -1.53187,-1.06156 -2.4725,-1.075c-0.1075,0 -0.215,0 -0.3225,0zM109.1125,113.52c-1.89469,0.26875 -3.225,2.02906 -2.95625,3.92375c0.26875,1.89469 2.02906,3.225 3.92375,2.95625h34.4c1.23625,0.01344 2.39188,-0.63156 3.02344,-1.70656c0.61813,-1.075 0.61813,-2.39187 0,-3.46687c-0.63156,-1.075 -1.78719,-1.72 -3.02344,-1.70656h-34.4c-0.1075,0 -0.215,0 -0.3225,0c-0.1075,0 -0.215,0 -0.3225,0c-0.1075,0 -0.215,0 -0.3225,0zM109.1125,134.16c-1.89469,0.26875 -3.225,2.02906 -2.95625,3.92375c0.26875,1.89469 2.02906,3.225 3.92375,2.95625h34.4c1.23625,0.01344 2.39188,-0.63156 3.02344,-1.70656c0.61813,-1.075 0.61813,-2.39187 0,-3.46687c-0.63156,-1.075 -1.78719,-1.72 -3.02344,-1.70656h-34.4c-0.1075,0 -0.215,0 -0.3225,0c-0.1075,0 -0.215,0 -0.3225,0c-0.1075,0 -0.215,0 -0.3225,0z"></path></g></g></g></svg>