<svg xmlns="http://www.w3.org/2000/svg" x="0px" y="0px"
width="30" height="30"
viewBox="0 0 172 172"
style=" fill:#000000;"><g transform="translate(17.2,17.2) scale(0.8,0.8)"><g fill="none" fill-rule="nonzero" stroke="none" stroke-width="1" stroke-linecap="butt" stroke-linejoin="miter" stroke-miterlimit="10" stroke-dasharray="" stroke-dashoffset="0" font-family="none" font-weight="none" font-size="none" text-anchor="none" style="mix-blend-mode: normal"><path d="M0,172v-172h172v172z" fill="none" stroke="none"></path><g fill="#000000" stroke="none"><path d="M161.68,20.64c-4.71656,0 -8.68062,3.27875 -9.89,7.6325l-132.225,39.6675c-1.65281,-3.52062 -5.13312,-6.02 -9.245,-6.02c-5.65719,0 -10.32,4.66281 -10.32,10.32v20.64c0,5.65719 4.66281,10.32 10.32,10.32c4.04469,0 7.55188,-2.37844 9.245,-5.805l27.4125,9.5675l-2.6875,7.095c0,0.04031 0,0.06719 0,0.1075c-2.66062,7.98188 1.69313,16.68938 9.675,19.35l14.2975,4.8375c7.98188,2.66063 16.68938,-1.69312 19.35,-9.675l2.2575,-6.7725l61.92,21.715c1.1825,4.4075 5.14656,7.74 9.89,7.74c5.65719,0 10.32,-4.66281 10.32,-10.32v-110.08c0,-5.65719 -4.66281,-10.32 -10.32,-10.32zM161.68,27.52c1.935,0 3.44,1.505 3.44,3.44v110.08c0,1.935 -1.505,3.44 -3.44,3.44c-1.90812,0 -3.38625,-1.43781 -3.44,-3.3325c0,-0.04031 0,-0.06719 0,-0.1075v-110.08c0,-0.1075 0,-0.215 0,-0.3225c0.16125,-1.78719 1.6125,-3.1175 3.44,-3.1175zM151.36,35.5825v100.62l-130.72,-45.795v-15.5875zM10.32,68.8c1.8275,0 3.27875,1.33031 3.44,3.1175c0.01344,0.1075 0,0.215 0,0.3225v20.64c0,0.1075 0,0.215 0,0.3225c-0.16125,1.78719 -1.6125,3.1175 -3.44,3.1175c-1.935,0 -3.44,-1.505 -3.44,-3.44v-20.64c0,-1.935 1.505,-3.44 3.44,-3.44zM53.4275,109.22l29.885,10.4275l-2.2575,6.7725c-1.47812,4.46125 -6.18125,6.86656 -10.6425,5.375l-14.2975,-4.73c-4.4075,-1.47812 -6.67844,-6.22156 -5.2675,-10.6425c0.01344,-0.04031 -0.01344,-0.06719 0,-0.1075z"></path></g></g></g></svg>