<svg xmlns="http://www.w3.org/2000/svg" x="0px" y="0px"
width="50" height="50"
viewBox="0 0 172 172"
style=" fill:#000000;"><g transform="translate(8.6,8.6) scale(0.9,0.9)"><g fill="none" fill-rule="nonzero" stroke="none" stroke-width="1" stroke-linecap="butt" stroke-linejoin="miter" stroke-miterlimit="10" stroke-dasharray="" stroke-dashoffset="0" font-family="none" font-weight="none" font-size="none" text-anchor="none" style="mix-blend-mode: normal"><path d="M0,172v-172h172v172z" fill="none" stroke="none"></path><g fill="#000000" stroke="none"><path d="M27.46625,24.08c-1.87876,0.02954 -3.38629,1.56101 -3.38625,3.44v116.96c0.00055,1.39103 0.8387,2.64485 2.12385,3.17714c1.28515,0.53229 2.76439,0.23831 3.74834,-0.74496l45.94953,-45.94953c0.89867,-0.86281 1.26068,-2.14404 0.94641,-3.34956c-0.31427,-1.20552 -1.2557,-2.14696 -2.46122,-2.46122c-1.20552,-0.31427 -2.48675,0.04774 -3.34956,0.94641l-40.07735,40.07735v-100.35125l111.08781,111.08781c0.98395,0.98326 2.46318,1.27725 3.74834,0.74495c1.28515,-0.53229 2.12331,-1.78612 2.12385,-3.17714v-116.96c-0.00055,-1.39103 -0.8387,-2.64485 -2.12385,-3.17714c-1.28515,-0.53229 -2.76439,-0.23831 -3.74834,0.74495l-45.94953,45.94953c-0.89867,0.86281 -1.26068,2.14404 -0.94641,3.34956c0.31427,1.20552 1.2557,2.14696 2.46122,2.46122c1.20552,0.31427 2.48675,-0.04774 3.34956,-0.94641l40.07735,-40.07735v100.35125l-111.08781,-111.08781c-0.65815,-0.65846 -1.55506,-1.02207 -2.48594,-1.00781z"></path></g></g></g></svg>