<svg xmlns="http://www.w3.org/2000/svg" x="0px" y="0px"
width="48" height="48"
viewBox="0 0 172 172"
style=" fill:#000000;"><g fill="none" fill-rule="nonzero" stroke="none" stroke-width="1" stroke-linecap="butt" stroke-linejoin="miter" stroke-miterlimit="10" stroke-dasharray="" stroke-dashoffset="0" font-family="none" font-weight="none" font-size="none" text-anchor="none" style="mix-blend-mode: normal"><path d="M0,172v-172h172v172z" fill="none"></path><g fill="#000000"><path d="M85.90902,14.25635c-0.3104,0.00825 -0.61949,0.04337 -0.92383,0.10498c-38.77342,0.53975 -70.19158,32.01033 -70.63786,70.80583c-0.12037,0.65494 -0.11799,1.32655 0.007,1.98063c0.61257,38.64103 31.94764,69.93784 70.60286,70.49089c0.67494,0.13068 1.36868,0.13068 2.04362,0c38.70553,-0.53881 70.07715,-31.9009 70.63086,-70.60287c0.13068,-0.67494 0.13068,-1.36868 0,-2.04362c-0.53881,-38.7055 -31.90087,-70.07715 -70.60286,-70.63086c-0.36857,-0.07405 -0.74388,-0.10924 -1.11979,-0.10498zM80.618,25.35628v23.05371l-17.2308,7.38362l-16.50993,-16.50993c9.28787,-7.7799 20.93894,-12.81162 33.74072,-13.92741zM91.368,25.35628c12.80178,1.11579 24.45285,6.14751 33.74072,13.92741l-16.50993,16.50993l-17.2308,-7.38362zM39.27669,46.88428l16.50993,16.50993l-7.39062,17.25179l-23.05371,0.10498c1.09371,-12.85087 6.12922,-24.54864 13.93441,-33.8667zM132.70931,46.88428c7.7799,9.28787 12.81162,20.93895 13.92741,33.74072h-23.05371l-7.38363,-17.2308zM85.41211,58.0612c0.39075,0.04299 0.78503,0.04299 1.17578,0l18.2806,7.83854c0.33995,0.46929 0.75355,0.88052 1.22477,1.21777l8.09049,18.88249l-8.08349,18.87549c-0.47483,0.34089 -0.89088,0.75694 -1.23177,1.23177l-18.87549,8.0835l-19.73633,-8.45443l-8.02051,-18.72851c0.12389,-0.66403 0.12152,-1.34547 -0.007,-2.00863l8.02751,-18.73551zM123.58301,91.375h23.05371c-1.11579,12.80177 -6.14751,24.45285 -13.92741,33.74072l-16.50993,-16.50993zM48.41699,91.39599l7.15267,16.6989l-19.08545,13.35351c-6.15118,-8.5852 -10.13488,-18.81584 -11.12793,-29.94743zM62.97428,116.02441l17.64372,7.56559v23.05371c-14.40857,-1.25583 -27.35007,-7.48824 -37.1141,-16.99284zM108.5988,116.20638l16.50993,16.50993c-9.28787,7.7799 -20.93894,12.81162 -33.74072,13.92741v-23.05371z"></path></g></g></svg>