<svg xmlns="http://www.w3.org/2000/svg" x="0px" y="0px"
width="24" height="24"
viewBox="0 0 172 172"
style=" fill:#000000;"><g transform="translate(17.2,17.2) scale(0.8,0.8)"><g fill="none" fill-rule="nonzero" stroke="none" stroke-width="1" stroke-linecap="butt" stroke-linejoin="miter" stroke-miterlimit="10" stroke-dasharray="" stroke-dashoffset="0" font-family="none" font-weight="none" font-size="none" text-anchor="none" style="mix-blend-mode: normal"><path d="M0,172v-172h172v172z" fill="none" stroke="none"></path><g fill="#000000" stroke="none"><path d="M86,0c-47.41968,0 -86,38.58032 -86,86c0,47.41968 38.58032,86 86,86c47.41968,0 86,-38.58032 86,-86c0,-47.41968 -38.58032,-86 -86,-86zM86,7.16667c43.46892,0 78.83333,35.36442 78.83333,78.83333c0,43.46892 -35.36442,78.83333 -78.83333,78.83333c-43.46891,0 -78.83333,-35.36442 -78.83333,-78.83333c0,-43.46891 35.36442,-78.83333 78.83333,-78.83333zM86,35.83333c-0.91683,0 -1.83366,0.34993 -2.53353,1.0498l-32.25,32.25c-1.39974,1.39974 -1.39974,3.66732 0,5.06706c1.39974,1.39974 3.66732,1.39974 5.06706,0l26.13314,-26.13314v84.51628c0,1.98063 1.6027,3.58333 3.58333,3.58333c1.98063,0 3.58333,-1.6027 3.58333,-3.58333v-84.51628l26.13314,26.13314c0.69988,0.69987 1.6167,1.0498 2.53353,1.0498c0.91683,0 1.83366,-0.34993 2.53353,-1.0498c1.39974,-1.39974 1.39974,-3.66732 0,-5.06706l-32.25,-32.25c-0.69988,-0.69987 -1.6167,-1.0498 -2.53353,-1.0498z"></path></g></g></g></svg>